<svg xmlns="http://www.w3.org/2000/svg" xmlns:xlink="http://www.w3.org/1999/xlink" viewBox="0 0 18.499 26.7"><defs><style>.cls-1{fill:none;}.cls-2{fill:#e8407e;}.cls-3{fill:#f9b833;}.cls-4{fill:#f19220;}.cls-5{clip-path:url(#clip-path);}.cls-6{fill:url(#linear-gradient);}.cls-7{clip-path:url(#clip-path-2);}.cls-8{fill:url(#linear-gradient-2);}.cls-9{clip-path:url(#clip-path-3);}.cls-10{fill:url(#linear-gradient-3);}</style><clipPath id="clip-path"><polygon id="SVGID" class="cls-1" points="9.25 16.016 18.499 21.355 18.499 10.677 9.25 16.016"/></clipPath><linearGradient id="linear-gradient" x1="-537.183" y1="452.014" x2="-536.084" y2="452.014" gradientTransform="translate(4511.867 -3772.718) scale(8.382)" gradientUnits="userSpaceOnUse"><stop offset="0" stop-color="#2b2a64"/><stop offset="0.108" stop-color="#48296b"/><stop offset="0.214" stop-color="#602871"/><stop offset="1" stop-color="#b03e7d"/></linearGradient><clipPath id="clip-path-2"><polygon id="SVGID-2" data-name="SVGID" class="cls-1" points="9.25 16.016 18.499 10.677 9.25 5.337 9.25 16.016"/></clipPath><linearGradient id="linear-gradient-2" x1="-522.73" y1="426.671" x2="-521.632" y2="426.671" gradientTransform="translate(3831.342 4683.25) rotate(90) scale(8.947)" gradientUnits="userSpaceOnUse"><stop offset="0" stop-color="#e65a25"/><stop offset="0.1" stop-color="#e65a25"/><stop offset="0.517" stop-color="#eb7623"/><stop offset="1" stop-color="#f19220"/></linearGradient><clipPath id="clip-path-3"><polygon id="SVGID-3" data-name="SVGID" class="cls-1" points="9.25 26.7 18.499 21.355 9.25 16.016 9.25 26.7"/></clipPath><linearGradient id="linear-gradient-3" x1="-537.165" y1="452.2" x2="-536.066" y2="452.2" gradientTransform="translate(4478.411 -3740.901) scale(8.32)" gradientUnits="userSpaceOnUse"><stop offset="0" stop-color="#b01e3d"/><stop offset="0.084" stop-color="#b71e41"/><stop offset="0.431" stop-color="#d0204f"/><stop offset="0.746" stop-color="#e02157"/><stop offset="1" stop-color="#e5215a"/></linearGradient></defs><title>Asset 1</title><g id="Layer_2" data-name="Layer 2"><g id="AW"><polygon class="cls-2" points="0 21.355 9.25 26.7 9.25 16.016 0 21.355"/><polygon class="cls-3" points="0 0 0 10.677 9.25 5.337 0 0"/><polygon class="cls-4" points="9.25 5.337 9.25 5.337 0 10.677 9.25 16.016 9.25 5.337"/><g class="cls-5"><rect class="cls-6" x="9.25" y="10.677" width="9.25" height="10.679"/></g><g class="cls-7"><rect class="cls-8" x="9.25" y="5.337" width="9.25" height="10.679"/></g><g class="cls-9"><rect class="cls-10" x="9.25" y="16.016" width="9.25" height="10.684"/></g></g></g></svg>