<svg xmlns="http://www.w3.org/2000/svg" viewBox="0 0 83.807 15.927"><defs><style>.cls-1{fill:#fff;}</style></defs><title>Asset 3</title><g id="Layer_2" data-name="Layer 2"><g id="AW"><path class="cls-1" d="M49.006,15.709,45.068,9.871l3.973-5.555H47.655a3.3,3.3,0,0,0-2.785,1.4C44.464,6.31,43.506,7.8,43.506,7.8l-.045.064L41.2,4.316h-3.53l4.049,5.729-3.933,5.664h3.272l2.405-3.454,2.367,3.454Z"/><path class="cls-1" d="M53.065,15.709V4.014a5.66,5.66,0,0,0-2.41,1.255,1.505,1.505,0,0,0-.471,1v9.442Z"/><path class="cls-1" d="M67.725,15.2a3.03,3.03,0,0,0,2.22.707,4.711,4.711,0,0,0,2.458-.615V13.325a3.513,3.513,0,0,1-1.482.319h0a1.17,1.17,0,0,1-.917-.33,1.333,1.333,0,0,1-.3-.96V6.705h2.473l1.331-2.389H69.7V0a6.217,6.217,0,0,0-2.385,1.432,1.952,1.952,0,0,0-.478,1.454v9.656a3.4,3.4,0,0,0,.886,2.66"/><path class="cls-1" d="M77.4,13.654A1.433,1.433,0,0,1,76.76,12.4a1.589,1.589,0,0,1,.215-.834,2.277,2.277,0,0,1,2.03-.849c.073,0,.16,0,.233,0a6.144,6.144,0,0,1,1.845.23v.933A1.939,1.939,0,0,1,79.938,13.7a3.47,3.47,0,0,1-1.316.282,2.306,2.306,0,0,1-1.226-.325M78.9,4.2a7.093,7.093,0,0,0-3.365.841.886.886,0,0,0-.388.737V7.288a11.926,11.926,0,0,1,3.269-.562,3.285,3.285,0,0,1,2.065.484A2.066,2.066,0,0,1,81.1,8.778a1.4,1.4,0,0,1-.013.206l0,.053-.046-.005a25.038,25.038,0,0,0-2.607-.152,5.337,5.337,0,0,0-3.3.884,3.542,3.542,0,0,0-1.257,2.7,3.363,3.363,0,0,0,1.194,2.663,5.045,5.045,0,0,0,2.939.8,6.427,6.427,0,0,0,2.35-.372,2.143,2.143,0,0,0,.661-.363l.076-.066v.591h2.724V9.07a5.012,5.012,0,0,0-1.069-3.614A4.837,4.837,0,0,0,78.9,4.2"/><path class="cls-1" d="M58.344,13.654A1.439,1.439,0,0,1,57.7,12.4a1.547,1.547,0,0,1,.226-.834,2.255,2.255,0,0,1,2.017-.849c.091,0,.165,0,.246,0a6.237,6.237,0,0,1,1.845.225v.938A1.94,1.94,0,0,1,60.878,13.7a3.462,3.462,0,0,1-1.32.282,2.271,2.271,0,0,1-1.214-.325m1.5-9.457a7.042,7.042,0,0,0-3.368.841.9.9,0,0,0-.393.737V7.288a11.991,11.991,0,0,1,3.277-.562,3.269,3.269,0,0,1,2.06.484,2.027,2.027,0,0,1,.616,1.568c0,.127,0,.206,0,.206l-.008.053-.043-.005A25,25,0,0,0,59.37,8.88a5.371,5.371,0,0,0-3.312.884,3.529,3.529,0,0,0-1.252,2.7A3.339,3.339,0,0,0,56,15.126a5.048,5.048,0,0,0,2.945.8,6.383,6.383,0,0,0,2.341-.372,2.092,2.092,0,0,0,.661-.363l.082-.066v.583h2.734V9.07a5,5,0,0,0-1.08-3.614A4.85,4.85,0,0,0,59.842,4.2"/><path class="cls-1" d="M30.271,13.654a1.432,1.432,0,0,1-.649-1.259,1.59,1.59,0,0,1,.22-.834,2.279,2.279,0,0,1,2.028-.849c.076,0,.162,0,.243,0a6.194,6.194,0,0,1,1.84.225v.938A1.932,1.932,0,0,1,32.805,13.7a3.447,3.447,0,0,1-1.313.282,2.262,2.262,0,0,1-1.221-.325M31.766,4.2a7.047,7.047,0,0,0-3.366.841.9.9,0,0,0-.395.737V7.288a12.009,12.009,0,0,1,3.274-.562,3.293,3.293,0,0,1,2.068.484,2.05,2.05,0,0,1,.611,1.568c0,.127,0,.206,0,.206l-.008.053L33.9,9.032a25.013,25.013,0,0,0-2.618-.152,5.3,5.3,0,0,0-3.292.884,3.5,3.5,0,0,0-1.259,2.7,3.356,3.356,0,0,0,1.193,2.663,5.044,5.044,0,0,0,2.94.8,6.442,6.442,0,0,0,2.349-.372,2.094,2.094,0,0,0,.659-.363l.079-.066v.583h2.729V9.07A5,5,0,0,0,35.6,5.456,4.829,4.829,0,0,0,31.766,4.2"/><polygon class="cls-1" points="3.913 10.012 0.16 4.402 3.799 4.402 5.824 7.613 7.856 4.402 11.411 4.402 7.661 9.982 11.571 15.816 7.942 15.816 5.753 12.374 3.553 15.816 0 15.816 3.913 10.012"/><polygon class="cls-1" points="12.762 4.402 15.93 4.402 15.93 13.043 21.447 13.043 21.447 15.816 12.762 15.816 12.762 4.402"/></g></g></svg>